PathFileType	4	(X/Y/Z)	./resultDataOpenSim/trcMotMarkerGrf/sub06/qtm-03-05.trc
DataRate	CameraRate	NumFrames	NumMarkers	Units	OrigDataRate	OrigDataStartFrame	OrigNumFrames
250.000000	250.000000	7	24	m	250.000000	130	518
Frame#	Time	L.Toe.Tip			R.Toe.Tip			L.Ankle.Lat			R.Ankle.Lat			L.Ankle.Med			R.Ankle.Med			L.Heel			R.Heel			L.Knee.Lat			R.Knee.Lat			L.Knee.Med			R.Knee.Med			L.Thigh.Upper			R.Thigh.Upper			L.ASIS			R.ASIS			V.Sacral			L.Acromium			R.Acromium			C7			L.Elbow			R.Elbow			L.Wrist.Lat			R.Wrist.Lat
		X1	Y1	Z1	X2	Y2	Z2	X3	Y3	Z3	X4	Y4	Z4	X5	Y5	Z5	X6	Y6	Z6	X7	Y7	Z7	X8	Y8	Z8	X9	Y9	Z9	X10	Y10	Z10	X11	Y11	Z11	X12	Y12	Z12	X13	Y13	Z13	X14	Y14	Z14	X15	Y15	Z15	X16	Y16	Z16	X17	Y17	Z17	X18	Y18	Z18	X19	Y19	Z19	X20	Y20	Z20	X21	Y21	Z21	X22	Y22	Z22	X23	Y23	Z23	X24	Y24	Z24

130	0.516	-0.08854691	0.12018538	-0.027968664	-0.82358632	0.034674533	0.11878848	-0.21514321	0.096186387	-0.042308235	-0.95114644	0.07693745	0.12931845	-0.21606921	0.11599732	0.041609932	-0.9206288	0.092365181	0.045357791	-0.26136678	0.03703997	0.011102066	-1.005094	0.063281354	0.061878931	-0.35283212	0.43863155	-0.052510475	-0.75016917	0.4137544	0.17017726	-0.36697035	0.42915691	0.072236721	-0.76611574	0.41506997	0.037561524	-0.54899677	0.77077389	-0.10757747	-0.64091651	0.76012287	0.23818284	-0.49065663	0.81133918	-0.048721778	-0.52056201	0.8007959	0.19907174	-0.69265468	0.88777178	0.055546722	-0.57408776	1.2939668	-0.11220205	-0.5602487	1.2826965	0.25007978	-0.64374133	1.326153	0.071043469	-0.69104307	1.0035865	-0.15258606	-0.60678073	0.96931039	0.34395759	-0.6202922	0.77782454	-0.21624235	-0.38201492	0.85824518	0.32535796
131	0.52	-0.078602686	0.11992045	-0.02743638	-0.82354597	0.034680462	0.11881458	-0.20497573	0.094871524	-0.0411806	-0.95055112	0.077893597	0.12952247	-0.20599334	0.11486585	0.042598212	-0.9199061	0.09307448	0.04551055	-0.25059144	0.035452888	0.012552815	-1.0048131	0.064912555	0.062230931	-0.34527099	0.43615621	-0.051683624	-0.74544797	0.41233588	0.17031195	-0.35971051	0.42666817	0.073117678	-0.76102409	0.41375383	0.037651308	-0.54091471	0.76791845	-0.10739567	-0.63483508	0.75806056	0.23828135	-0.48278506	0.80841691	-0.048343375	-0.51374284	0.79831888	0.1996711	-0.68340158	0.88481628	0.054780641	-0.56784268	1.2913879	-0.11238623	-0.55379855	1.2803202	0.25006405	-0.63729534	1.3237267	0.070869398	-0.68495441	1.0011013	-0.15246115	-0.59921545	0.96675102	0.34434788	-0.61537938	0.77522498	-0.21654927	-0.37410308	0.85667632	0.32532953
132	0.524	-0.069096156	0.11924641	-0.026906045	-0.82347428	0.034707732	0.1188402	-0.19525242	0.093299583	-0.040030865	-0.94984291	0.078926228	0.12979322	-0.19630156	0.11351374	0.043634241	-0.91908676	0.093851238	0.045715939	-0.24032814	0.033727809	0.014084585	-1.004408	0.06665942	0.062562675	-0.33774156	0.43365389	-0.050866232	-0.74062983	0.41090501	0.17050345	-0.35241198	0.42420691	0.073948503	-0.75565615	0.41240012	0.037795666	-0.53268964	0.7651824	-0.10719739	-0.62871931	0.75600151	0.23829617	-0.4748689	0.80552938	-0.047926425	-0.50685453	0.79581051	0.20022839	-0.67443492	0.88222746	0.055306908	-0.56158449	1.2888448	-0.11260573	-0.54730473	1.2779816	0.25002194	-0.63078508	1.3212773	0.070680817	-0.67880495	0.99860315	-0.15237051	-0.5916512	0.9642196	0.34470847	-0.61013462	0.77268006	-0.21678752	-0.36625759	0.85505904	0.32531841
133	0.528	-0.060015745	0.11818387	-0.026337951	-0.82337212	0.034728156	0.11887748	-0.1859835	0.091458739	-0.038856482	-0.94897187	0.080066195	0.1301349	-0.18700156	0.1119247	0.044711322	-0.91820413	0.094705206	0.045984703	-0.23057438	0.031837842	0.015608768	-1.0039059	0.068520321	0.06293514	-0.33030322	0.43109318	-0.050081618	-0.73572026	0.40947084	0.17074867	-0.34506759	0.42178834	0.074722829	-0.75003752	0.41100581	0.038000624	-0.5243469	0.76256178	-0.10698686	-0.62254337	0.75394227	0.2382542	-0.46687718	0.80269396	-0.047466173	-0.50017988	0.79330373	0.20089827	-0.66609508	0.87999986	0.056687837	-0.55531456	1.2863321	-0.11286538	-0.54076932	1.2756802	0.24995376	-0.62423258	1.3188166	0.070491842	-0.67258649	0.99609797	-0.15230887	-0.58409525	0.96172036	0.34502966	-0.60474428	0.77013745	-0.21701388	-0.3584583	0.85338482	0.32530558
134	0.532	-0.051351183	0.11674609	-0.025689246	-0.82326924	0.034738934	0.11894908	-0.17715869	0.089357533	-0.037665785	-0.94795176	0.081347969	0.13054142	-0.17813382	0.11007304	0.045806344	-0.91726009	0.095645893	0.046313331	-0.22131798	0.029731879	0.017003765	-1.0033914	0.07049967	0.063435921	-0.32288498	0.42848322	-0.049327211	-0.73073536	0.40804618	0.17103857	-0.33767239	0.41942088	0.075440484	-0.74432154	0.40957364	0.038257433	-0.51593974	0.76003739	-0.10676501	-0.61628132	0.75188115	0.23816364	-0.45878672	0.7999304	-0.046954761	-0.49384664	0.7908515	0.20176838	-0.65826922	0.87787699	0.057888564	-0.54901305	1.2838225	-0.11315902	-0.53419083	1.2734137	0.24985488	-0.6176639	1.3163466	0.070327698	-0.66630316	0.99359187	-0.15227251	-0.57654937	0.95926719	0.34529979	-0.59941875	0.76754749	-0.2172977	-0.3506418	0.85163423	0.32524847
135	0.536	-0.043091309	0.1149394	-0.024924384	-0.82320153	0.03475268	0.1190741	-0.16875722	0.087021743	-0.036472708	-0.94687029	0.082777886	0.13100168	-0.16971011	0.10794978	0.0469133	-0.91626801	0.096684652	0.046709253	-0.21257797	0.027373465	0.018239653	-1.0029093	0.072633708	0.064090581	-0.31540998	0.42584875	-0.048596211	-0.7256759	0.40664218	0.17136592	-0.33022593	0.41710075	0.076109794	-0.73861849	0.40810705	0.038559584	-0.50749964	0.75758907	-0.1065281	-0.60993564	0.74983944	0.238035	-0.45060023	0.79725547	-0.046393523	-0.48766437	0.78848051	0.20272669	-0.65058451	0.87559775	0.058187324	-0.54264958	1.281285	-0.11347589	-0.5275533	1.2711796	0.2497153	-0.61109995	1.3138806	0.070191747	-0.65997481	0.99108647	-0.15225609	-0.56900719	0.95687237	0.34550728	-0.59414431	0.76491722	-0.21764509	-0.3428017	0.8498043	0.32513758
136	0.54	-0.035227888	0.11275744	-0.024016687	-0.82315575	0.034774011	0.11923651	-0.16076907	0.084473095	-0.035285502	-0.94581135	0.084318457	0.13150541	-0.16171647	0.10555604	0.048038249	-0.91525925	0.097836193	0.047191532	-0.20439856	0.024774827	0.019405462	-1.002391	0.074960817	0.064843059	-0.30784964	0.42321093	-0.047886358	-0.72051546	0.40526342	0.1717347	-0.32272793	0.41481561	0.076739397	-0.73290015	0.40660575	0.03891154	-0.49902682	0.75520204	-0.10627755	-0.60353359	0.74784607	0.23787103	-0.44233757	0.79467891	-0.045791004	-0.48132696	0.78618789	0.20358047	-0.64265769	0.87306417	0.057578935	-0.53619803	1.2787053	-0.11380584	-0.52083975	1.2689772	0.24952934	-0.60451255	1.311437	0.070029577	-0.65362223	0.9885824	-0.15225313	-0.56145965	0.95453935	0.34564373	-0.58875601	0.76228362	-0.21800975	-0.33503189	0.84792239	0.32502194
